<?xml version="1.0" ?><svg height="48" id="svg8" version="1.1" viewBox="0 0 12.7 12.7" width="48" xmlns="http://www.w3.org/2000/svg" xmlns:cc="http://creativecommons.org/ns#" xmlns:dc="http://purl.org/dc/elements/1.1/" xmlns:rdf="http://www.w3.org/1999/02/22-rdf-syntax-ns#" xmlns:svg="http://www.w3.org/2000/svg"><defs id="defs2"/><g id="layer1" transform="translate(0,-284.29999)"><path d="m 4.9388885,287.82773 v 0.70554 h 2.2971892 l 0.188792,-0.70554 z m 4.9705834,0 -0.188792,0.70554 h 0.8626531 v -0.70554 z m -4.9705834,2.82221 v 0.70555 h 1.623329 l -0.034451,-0.1792 0.14056,-0.5264 z m 4.2140403,0 -0.188792,0.70555 h 1.6191962 v -0.70555 z m -4.2140403,2.82221 v 0.70558 h 5.6444445 v -0.70558 H 7.3945526 l -0.3472658,0.40102 -0.077171,-0.40102 z" id="rect4543" style="opacity:1;vector-effect:none;fill:#000000;fill-opacity:0.37647059;stroke:none;stroke-width:0.7055555;stroke-linecap:butt;stroke-linejoin:miter;stroke-miterlimit:4;stroke-dasharray:none;stroke-dashoffset:0;stroke-opacity:1"/><circle cx="3.1749997" cy="293.11942" id="path4549" r="0.7055555" style="opacity:1;vector-effect:none;fill:none;fill-opacity:0.37647059;stroke:#000000;stroke-width:0.7055555;stroke-linecap:butt;stroke-linejoin:miter;stroke-miterlimit:4;stroke-dasharray:none;stroke-dashoffset:0;stroke-opacity:1"/><circle cx="3.1749997" cy="290.29721" id="circle4565" r="0.7055555" style="opacity:1;vector-effect:none;fill:none;fill-opacity:0.37647059;stroke:#000000;stroke-width:0.7055555;stroke-linecap:butt;stroke-linejoin:miter;stroke-miterlimit:4;stroke-dasharray:none;stroke-dashoffset:0;stroke-opacity:1"/><circle cx="3.1749997" cy="287.47495" id="circle4567" r="0.7055555" style="opacity:1;vector-effect:none;fill:none;fill-opacity:0.37647059;stroke:#000000;stroke-width:0.7055555;stroke-linecap:butt;stroke-linejoin:miter;stroke-miterlimit:4;stroke-dasharray:none;stroke-dashoffset:0;stroke-opacity:1"/><path d="m 7.897988,286.06533 -1.3696772,5.1117 0.5193112,2.69563 1.7978374,-2.07475 1.3696776,-5.1117 z" id="path5647" style="fill:none;fill-rule:evenodd;stroke:#000000;stroke-width:0.7055555px;stroke-linecap:butt;stroke-linejoin:miter;stroke-opacity:1"/><path d="m 7.0476217,293.87266 -0.3742176,-2.14579 1.7037858,0.45654 z" id="path5649" style="fill:#000000;fill-opacity:0.37647059;fill-rule:evenodd;stroke:#000000;stroke-width:0.7055555;stroke-linecap:butt;stroke-linejoin:bevel;stroke-miterlimit:4;stroke-dasharray:none;stroke-opacity:1"/></g></svg>